<svg width="427" height="122" viewBox="0 0 427 122" fill="none" xmlns="http://www.w3.org/2000/svg">
<path d="M66.2047 117.128C3.42137 95.128 14.4644 9.77649 79.2637 0.69441C-26.3776 -11.1363 -26.4611 132.281 79.2525 120.384C74.803 119.681 70.4537 118.605 66.2047 117.122" fill="#CDCCCC"/>
<path d="M49.7042 27.2158C55.1951 25.298 60.8141 24.3669 66.8897 24.3669C72.9653 24.3669 78.8293 25.3035 84.3982 27.2326C89.6162 29.0389 93.9822 31.4921 97.7523 34.7369C99.1835 35.969 100.459 37.3349 101.656 38.7789H67.5969V57.3333H133.855C133.477 49.2269 131.672 41.8564 128.442 35.2275C124.778 27.712 119.889 21.3228 113.791 16.0598C109.792 12.6198 105.354 9.70956 100.492 7.31778C97.5407 6.95539 94.5335 6.7714 91.4929 6.7714C83.5294 6.7714 75.8054 8.05929 68.5269 10.6016C61.3264 13.116 54.8665 16.7845 49.3367 21.5068C45.7447 24.5732 42.6206 28.0967 39.9754 32.005C42.9102 30.0536 46.1234 28.4647 49.7042 27.2103" fill="#CDCCCC"/>
<path d="M218.368 114.179V104.115H219.471L225.34 110.432V104.115H227.418V114.179H226.315L220.445 107.862V114.179H218.368Z" fill="#CDCCCC"/>
<path d="M233.978 104.099V109.735C233.978 110.153 234.017 110.538 234.095 110.884C234.173 111.229 234.306 111.525 234.496 111.776C234.685 112.021 234.93 112.216 235.236 112.35C235.543 112.489 235.921 112.556 236.372 112.556C236.823 112.556 237.202 112.489 237.503 112.35C237.804 112.21 238.054 112.021 238.244 111.764C238.433 111.514 238.566 111.213 238.656 110.867C238.745 110.521 238.784 110.142 238.784 109.735V104.099H240.816V109.785C240.816 110.371 240.738 110.939 240.582 111.48C240.426 112.021 240.17 112.5 239.82 112.919C239.469 113.337 239.012 113.671 238.444 113.922C237.876 114.167 237.185 114.29 236.367 114.29C235.548 114.29 234.858 114.167 234.29 113.922C233.722 113.677 233.265 113.342 232.914 112.919C232.563 112.5 232.307 112.021 232.151 111.48C231.995 110.939 231.917 110.376 231.917 109.785V104.099H233.994H233.978Z" fill="#CDCCCC"/>
<path d="M247.221 114.179V105.799H243.885V104.099H252.617V105.799H249.281V114.179H247.221Z" fill="#CDCCCC"/>
<path d="M256.003 114.179V104.099H260.564C261.159 104.099 261.705 104.16 262.19 104.277C262.674 104.4 263.092 104.589 263.437 104.846C263.782 105.102 264.05 105.425 264.239 105.816C264.428 106.206 264.523 106.669 264.523 107.204C264.523 107.834 264.345 108.38 263.994 108.832C263.643 109.289 263.142 109.64 262.49 109.88L264.868 114.179H262.602L260.525 110.304H258.069V114.179H255.991H256.003ZM258.08 108.648L260.235 108.631C260.547 108.631 260.842 108.609 261.109 108.57C261.377 108.531 261.61 108.453 261.816 108.347C262.023 108.241 262.178 108.096 262.295 107.912C262.412 107.728 262.468 107.494 262.468 107.209C262.468 106.925 262.418 106.674 262.312 106.49C262.206 106.306 262.062 106.161 261.878 106.055C261.694 105.949 261.482 105.883 261.248 105.844C261.015 105.805 260.77 105.788 260.519 105.788H258.08V108.648Z" fill="#CDCCCC"/>
<path d="M268.572 114.179V104.115H270.649V114.179H268.572Z" fill="#CDCCCC"/>
<path d="M275.215 114.179V104.115H276.318L282.187 110.432V104.115H284.265V114.179H283.162L277.292 107.862V114.179H275.215Z" fill="#CDCCCC"/>
<path d="M288.82 104.099H293.258C294.138 104.099 294.923 104.232 295.608 104.494C296.293 104.756 296.878 105.119 297.363 105.576C297.847 106.033 298.215 106.568 298.465 107.182C298.716 107.795 298.844 108.447 298.844 109.144C298.844 109.841 298.716 110.504 298.465 111.112C298.215 111.72 297.847 112.255 297.363 112.712C296.878 113.169 296.293 113.532 295.608 113.794C294.918 114.056 294.138 114.19 293.258 114.19H288.82V104.099ZM290.897 112.478H293.18C293.726 112.478 294.222 112.4 294.667 112.244C295.113 112.088 295.491 111.859 295.809 111.564C296.121 111.268 296.366 110.917 296.533 110.51C296.7 110.097 296.783 109.646 296.783 109.139C296.783 108.631 296.7 108.18 296.533 107.767C296.366 107.354 296.121 107.009 295.809 106.719C295.497 106.429 295.113 106.206 294.667 106.044C294.222 105.883 293.726 105.799 293.18 105.799H290.897V112.478Z" fill="#CDCCCC"/>
<path d="M301.801 109.139C301.801 108.364 301.951 107.656 302.252 107.031C302.553 106.401 302.954 105.86 303.455 105.409C303.956 104.957 304.541 104.611 305.209 104.372C305.877 104.132 306.579 104.009 307.325 104.009C308.071 104.009 308.773 104.132 309.441 104.372C310.11 104.611 310.689 104.957 311.19 105.409C311.691 105.86 312.087 106.401 312.376 107.031C312.671 107.661 312.816 108.364 312.816 109.139C312.816 109.913 312.671 110.622 312.376 111.257C312.081 111.893 311.686 112.434 311.19 112.88C310.694 113.326 310.11 113.671 309.441 113.917C308.773 114.162 308.071 114.284 307.325 114.284C306.579 114.284 305.877 114.162 305.209 113.917C304.541 113.671 303.956 113.326 303.455 112.88C302.954 112.434 302.553 111.893 302.252 111.257C301.951 110.622 301.801 109.913 301.801 109.139ZM307.325 112.556C307.821 112.556 308.272 112.467 308.684 112.294C309.096 112.121 309.458 111.882 309.764 111.575C310.071 111.268 310.305 110.911 310.483 110.493C310.655 110.081 310.745 109.624 310.745 109.133C310.745 108.642 310.655 108.185 310.483 107.773C310.31 107.36 310.071 106.998 309.764 106.691C309.458 106.384 309.102 106.15 308.684 105.972C308.272 105.799 307.815 105.71 307.325 105.71C306.835 105.71 306.379 105.799 305.955 105.972C305.538 106.145 305.17 106.384 304.864 106.691C304.552 106.998 304.312 107.354 304.14 107.773C303.967 108.185 303.878 108.642 303.878 109.133C303.878 109.624 303.967 110.081 304.14 110.493C304.312 110.906 304.552 111.268 304.864 111.575C305.176 111.882 305.538 112.116 305.955 112.294C306.373 112.467 306.83 112.556 307.325 112.556Z" fill="#CDCCCC"/>
<path d="M330.219 113.392C329.673 113.727 329.138 113.961 328.621 114.095C328.103 114.229 327.529 114.29 326.9 114.29C326.154 114.29 325.435 114.173 324.745 113.933C324.054 113.694 323.441 113.353 322.912 112.907C322.383 112.461 321.96 111.921 321.637 111.285C321.314 110.649 321.158 109.936 321.158 109.15C321.158 108.364 321.32 107.633 321.637 106.998C321.955 106.362 322.383 105.821 322.918 105.375C323.453 104.929 324.065 104.589 324.761 104.349C325.457 104.11 326.17 103.993 326.916 103.993C327.484 103.993 328.058 104.054 328.637 104.182C329.222 104.31 329.745 104.545 330.219 104.89V106.702C329.734 106.396 329.244 106.167 328.737 106.016C328.236 105.866 327.64 105.788 326.961 105.788C326.471 105.788 325.998 105.866 325.547 106.022C325.095 106.178 324.7 106.401 324.36 106.691C324.021 106.981 323.748 107.332 323.542 107.745C323.336 108.157 323.235 108.626 323.235 109.139C323.235 109.651 323.336 110.114 323.542 110.527C323.748 110.934 324.021 111.285 324.36 111.58C324.7 111.876 325.095 112.099 325.547 112.261C325.998 112.417 326.471 112.495 326.961 112.495C327.295 112.495 327.601 112.478 327.88 112.45C328.158 112.417 328.426 112.367 328.682 112.294C328.938 112.222 329.189 112.132 329.439 112.027C329.69 111.921 329.946 111.792 330.219 111.647V113.392Z" fill="#CDCCCC"/>
<path d="M333.271 109.139C333.271 108.364 333.421 107.656 333.722 107.031C334.022 106.401 334.423 105.86 334.924 105.409C335.426 104.957 336.01 104.611 336.679 104.372C337.347 104.132 338.049 104.009 338.795 104.009C339.541 104.009 340.243 104.132 340.911 104.372C341.579 104.611 342.158 104.957 342.66 105.409C343.161 105.86 343.556 106.401 343.846 107.031C344.141 107.661 344.286 108.364 344.286 109.139C344.286 109.913 344.141 110.622 343.846 111.257C343.551 111.893 343.155 112.434 342.66 112.88C342.164 113.326 341.579 113.671 340.911 113.917C340.243 114.162 339.541 114.284 338.795 114.284C338.049 114.284 337.347 114.162 336.679 113.917C336.01 113.671 335.426 113.326 334.924 112.88C334.423 112.434 334.022 111.893 333.722 111.257C333.421 110.622 333.271 109.913 333.271 109.139ZM338.795 112.556C339.29 112.556 339.742 112.467 340.154 112.294C340.566 112.121 340.928 111.882 341.234 111.575C341.54 111.268 341.774 110.911 341.952 110.493C342.125 110.081 342.214 109.624 342.214 109.133C342.214 108.642 342.125 108.185 341.952 107.773C341.78 107.36 341.54 106.998 341.234 106.691C340.928 106.384 340.571 106.15 340.154 105.972C339.742 105.799 339.285 105.71 338.795 105.71C338.305 105.71 337.848 105.799 337.425 105.972C337.007 106.145 336.64 106.384 336.333 106.691C336.022 106.998 335.782 107.354 335.609 107.773C335.437 108.185 335.348 108.642 335.348 109.133C335.348 109.624 335.437 110.081 335.609 110.493C335.782 110.906 336.022 111.268 336.333 111.575C336.645 111.882 337.007 112.116 337.425 112.294C337.843 112.467 338.299 112.556 338.795 112.556Z" fill="#CDCCCC"/>
<path d="M348.045 114.179V104.115H349.147L355.017 110.432V104.115H357.094V114.179H355.991L350.122 107.862V114.179H348.045Z" fill="#CDCCCC"/>
<path d="M361.655 114.179V104.115H369.206V105.816L363.732 105.799V108.035H367.87V109.702H363.732V114.173H361.655V114.179Z" fill="#CDCCCC"/>
<path d="M372.793 114.179V104.115H374.87V114.179H372.793Z" fill="#CDCCCC"/>
<path d="M385.618 112.556H381.402L380.634 114.179H378.495L383.134 104.115H383.891L388.564 114.179H386.375L385.618 112.556ZM384.86 110.95L383.524 108.051L382.171 110.95H384.86Z" fill="#CDCCCC"/>
<path d="M392.178 114.179V104.115H393.281L399.15 110.432V104.115H401.227V114.179H400.125L394.255 107.862V114.179H392.178Z" fill="#CDCCCC"/>
<path d="M414.03 113.392C413.484 113.727 412.95 113.961 412.432 114.095C411.914 114.229 411.34 114.29 410.711 114.29H410.433C410.344 114.29 410.26 114.29 410.171 114.273L410.032 114.809C410.399 114.859 410.711 114.987 410.967 115.177C411.223 115.372 411.352 115.673 411.352 116.08C411.352 116.342 411.296 116.565 411.179 116.743C411.062 116.922 410.912 117.067 410.728 117.178C410.544 117.29 410.338 117.368 410.115 117.423C409.887 117.474 409.664 117.501 409.447 117.501C409.174 117.501 408.924 117.474 408.69 117.423C408.461 117.373 408.222 117.273 407.982 117.122L408.378 116.303C408.523 116.375 408.69 116.437 408.868 116.476C409.046 116.515 409.219 116.537 409.386 116.537C409.553 116.537 409.709 116.503 409.859 116.442C410.004 116.381 410.076 116.241 410.076 116.03C410.076 115.89 410.026 115.79 409.926 115.717C409.826 115.645 409.703 115.595 409.564 115.567C409.425 115.539 409.28 115.528 409.13 115.528H408.768L409.163 114.112C408.584 113.978 408.044 113.766 407.537 113.476C407.03 113.186 406.585 112.829 406.206 112.406C405.827 111.982 405.526 111.497 405.309 110.95C405.087 110.404 404.981 109.808 404.981 109.155C404.981 108.358 405.142 107.639 405.46 107.003C405.777 106.368 406.206 105.827 406.735 105.381C407.264 104.935 407.877 104.595 408.567 104.355C409.258 104.115 409.976 103.998 410.722 103.998C411.29 103.998 411.864 104.059 412.443 104.188C413.028 104.316 413.551 104.55 414.025 104.896V106.708C413.54 106.401 413.05 106.173 412.543 106.022C412.042 105.871 411.446 105.793 410.767 105.793C410.277 105.793 409.803 105.871 409.352 106.028C408.901 106.184 408.506 106.407 408.166 106.697C407.826 106.986 407.554 107.338 407.359 107.75C407.158 108.163 407.058 108.631 407.058 109.144C407.058 109.657 407.158 110.12 407.359 110.532C407.559 110.939 407.826 111.291 408.166 111.586C408.506 111.882 408.901 112.105 409.352 112.266C409.803 112.422 410.277 112.5 410.767 112.5C411.101 112.5 411.407 112.484 411.686 112.456C411.964 112.422 412.231 112.372 412.488 112.3C412.744 112.227 412.994 112.138 413.245 112.032C413.496 111.926 413.752 111.798 414.025 111.653V113.387L414.03 113.392Z" fill="#CDCCCC"/>
<path d="M424.054 112.556H419.838L419.07 114.179H416.932L421.57 104.115H422.328L427 114.179H424.811L424.054 112.556ZM423.297 110.95L421.96 108.051L420.607 110.95H423.297Z" fill="#CDCCCC"/>
<path d="M68.0369 64.6648V83.2192H101.662C100.615 84.4012 99.5176 85.5385 98.2981 86.5699C94.4054 89.8482 89.9559 92.3347 84.6989 94.1746C79.2192 96.0869 73.5389 97.0179 67.3352 97.0179C61.1315 97.0179 55.635 96.0869 50.1497 94.1746C46.5077 92.9034 43.261 91.281 40.2873 89.313C42.9492 93.3048 46.1067 96.873 49.7487 99.9449C55.2898 104.623 61.7552 108.269 68.9669 110.789C76.2398 113.326 83.9638 114.613 91.9329 114.613C94.9345 114.613 97.8915 114.435 100.798 114.084C105.649 111.703 110.098 108.821 114.141 105.42C120.306 100.224 125.224 93.8679 128.888 86.3469C132.062 79.835 133.855 72.6095 134.278 64.6704H68.0424L68.0369 64.6648Z" fill="white"/>
<path d="M182.694 38.3217C182.789 41.5721 182.505 44.3095 181.837 46.5396C181.168 48.7697 180.132 50.5761 178.735 51.9644C177.337 53.347 175.577 54.3506 173.461 54.975C171.345 55.5939 168.9 55.9061 166.138 55.9061C163.91 55.9061 161.789 55.5771 159.767 54.9248C157.746 54.2725 155.964 53.2745 154.421 51.9365C152.878 50.5984 151.642 48.9259 150.723 46.9188C149.799 44.9117 149.342 42.5701 149.342 39.894C149.342 37.2178 149.899 34.9264 151.013 32.9193C152.127 30.9122 153.591 29.2229 155.401 27.857C157.217 26.4855 159.277 25.4541 161.583 24.7516C163.888 24.0491 166.221 23.6979 168.572 23.6979C170.766 23.6979 172.904 23.9989 174.992 24.6066C177.075 25.2143 178.946 26.1677 180.6 27.4723V34.4023C179.865 33.8281 179.035 33.3096 178.094 32.8524C177.153 32.3897 176.162 31.9938 175.109 31.6593C174.062 31.3248 172.988 31.0739 171.891 30.8955C170.794 30.7227 169.685 30.6335 168.572 30.6335C167.14 30.6335 165.765 30.8174 164.445 31.1798C163.125 31.5478 161.961 32.1053 160.959 32.8524C159.956 33.5995 159.155 34.5696 158.548 35.7627C157.946 36.9558 157.64 38.3998 157.64 40.0891C157.64 41.6502 157.913 43.0049 158.453 44.1479C158.993 45.2964 159.7 46.2497 160.575 47.0135C161.449 47.7774 162.435 48.3516 163.532 48.7363C164.629 49.1154 165.737 49.344 166.851 49.4053C167.87 49.4388 168.856 49.3328 169.808 49.0931C170.76 48.8534 171.607 48.4966 172.336 48.0171C173.071 47.5376 173.656 46.9411 174.101 46.2274C174.547 45.5082 174.77 44.6887 174.77 43.7687H165.514V38.3217H182.694Z" fill="white"/>
<path d="M188.269 55.566V24.562H202.92C207.214 24.562 210.438 25.4373 212.582 27.188C214.732 28.9386 215.801 31.3471 215.801 34.4023C215.801 36.0916 215.339 37.6583 214.42 39.1078C213.496 40.5574 212.036 41.7282 210.032 42.6202L217.332 55.566H208.311L202.107 44.2426H196.572V55.566H188.269ZM196.572 37.8423L201.962 37.7921C203.9 37.7921 205.32 37.5356 206.211 37.0283C207.102 36.5209 207.548 35.6568 207.548 34.4469C207.548 33.8114 207.414 33.2761 207.141 32.8468C206.869 32.4175 206.512 32.0775 206.067 31.821C205.621 31.5645 205.114 31.3805 204.541 31.269C203.967 31.1575 203.377 31.1018 202.775 31.1018H196.572V37.8423Z" fill="white"/>
<path d="M229.645 24.562V41.8564C229.645 42.938 229.74 43.936 229.929 44.8448C230.119 45.7535 230.447 46.5341 230.909 47.1864C231.372 47.8387 231.99 48.3516 232.769 48.714C233.549 49.082 234.529 49.2659 235.704 49.2659C236.879 49.2659 237.859 49.082 238.639 48.714C239.419 48.346 240.048 47.8387 240.521 47.1864C241 46.5341 241.334 45.7535 241.524 44.8448C241.713 43.936 241.808 42.9436 241.808 41.8564V24.562H249.966V42.0014C249.966 43.5011 249.76 45.0678 249.348 46.7069C248.936 48.346 248.195 49.8458 247.131 51.195C246.068 52.5498 244.609 53.6704 242.765 54.5624C240.922 55.4545 238.55 55.9005 235.654 55.9005C232.758 55.9005 230.43 55.4545 228.57 54.5624C226.71 53.6704 225.246 52.5498 224.182 51.195C223.113 49.8402 222.378 48.346 221.966 46.7069C221.554 45.0678 221.342 43.5011 221.342 42.0014V24.562H229.645Z" fill="white"/>
<path d="M255.529 55.566V24.562H269.752C271.406 24.562 273.027 24.7293 274.619 25.0638C276.206 25.3983 277.632 25.9558 278.891 26.7364C280.149 27.5169 281.157 28.5539 281.92 29.8418C282.683 31.1297 283.067 32.7298 283.067 34.6421C283.067 36.5544 282.661 37.9928 281.848 39.2528C281.035 40.5128 279.993 41.5442 278.724 42.3582C277.454 43.1722 276.023 43.7632 274.43 44.1256C272.837 44.4935 271.278 44.6719 269.752 44.6719H263.832V55.566H255.529ZM263.832 38.1322H269.607C270.276 38.1322 270.922 38.0876 271.54 37.9872C272.158 37.8924 272.709 37.6973 273.188 37.413C273.667 37.1231 274.057 36.7272 274.358 36.2199C274.658 35.7125 274.809 35.0546 274.809 34.2574C274.809 33.4601 274.653 32.9026 274.33 32.49C274.012 32.0775 273.606 31.7652 273.11 31.559C272.615 31.3527 272.063 31.2244 271.439 31.1743C270.816 31.1297 270.203 31.1018 269.602 31.1018H263.827V38.1266L263.832 38.1322Z" fill="white"/>
<path d="M288.079 40.0891C288.079 37.636 288.558 35.4393 289.51 33.4936C290.463 31.5534 291.755 29.8864 293.375 28.5037C294.996 27.1211 296.861 26.0618 298.961 25.3258C301.06 24.5955 303.254 24.2275 305.549 24.2275C307.843 24.2275 310.093 24.5955 312.204 25.3258C314.32 26.0618 316.169 27.1099 317.761 28.4758C319.354 29.8474 320.624 31.5088 321.581 33.4657C322.534 35.4226 323.013 37.6304 323.013 40.0835C323.013 42.5366 322.534 44.7388 321.581 46.7013C320.629 48.6638 319.348 50.3141 317.739 51.6689C316.13 53.0237 314.281 54.0662 312.181 54.7966C310.082 55.5325 307.871 55.8949 305.549 55.8949C303.227 55.8949 301.066 55.5269 298.961 54.7966C296.861 54.0662 295.001 53.0125 293.375 51.641C291.755 50.2695 290.463 48.6081 289.51 46.6512C288.558 44.6942 288.079 42.5032 288.079 40.0835M305.543 49.2604C306.846 49.2604 308.066 49.0262 309.191 48.569C310.321 48.1063 311.29 47.4707 312.103 46.6567C312.916 45.8427 313.551 44.8726 314.013 43.7409C314.476 42.6091 314.704 41.3937 314.704 40.0835C314.704 38.7733 314.47 37.5579 314.013 36.4317C313.551 35.2999 312.916 34.3243 312.103 33.4936C311.29 32.6684 310.321 32.0217 309.191 31.559C308.06 31.0962 306.846 30.8676 305.543 30.8676C304.24 30.8676 303.032 31.0962 301.918 31.559C300.804 32.0217 299.835 32.6684 299.005 33.4936C298.181 34.3243 297.535 35.2999 297.073 36.4317C296.611 37.5635 296.382 38.7789 296.382 40.0835C296.382 41.3881 296.611 42.6091 297.073 43.7409C297.535 44.8726 298.176 45.8427 299.005 46.6567C299.835 47.4707 300.804 48.1063 301.918 48.569C303.032 49.0318 304.24 49.2604 305.543 49.2604Z" fill="white"/>
<path d="M149.342 96.8451V65.8412H173.918V72.3809H157.645V77.9227L170.482 77.8781V84.3287H157.645V90.2998L174.536 90.2496V96.8451H149.342Z" fill="white"/>
<path d="M206.857 104.678L192.495 97.0849C190.396 96.8953 188.413 96.3768 186.553 95.5294C184.693 94.6875 183.073 93.578 181.686 92.2065C180.305 90.835 179.202 89.2349 178.395 87.4062C177.582 85.5775 177.175 83.5593 177.175 81.3626C177.175 78.9095 177.654 76.7129 178.607 74.7671C179.559 72.8269 180.851 71.1599 182.471 69.7773C184.092 68.3946 185.958 67.3353 188.057 66.5994C190.156 65.869 192.351 65.5011 194.645 65.5011C196.939 65.5011 199.178 65.869 201.277 66.5994C203.377 67.3353 205.231 68.3835 206.835 69.7494C208.439 71.1209 209.72 72.7823 210.678 74.7393C211.63 76.6962 212.109 78.904 212.109 81.3571C212.109 82.9795 211.869 84.5405 211.39 86.0403C210.917 87.5344 210.249 88.906 209.386 90.1492C208.528 91.3925 207.481 92.4909 206.262 93.4442C205.036 94.3976 203.661 95.1837 202.135 95.7858L211.201 100.469L206.857 104.673V104.678ZM194.639 90.5395C195.942 90.5395 197.162 90.3053 198.287 89.8482C199.417 89.3854 200.386 88.7499 201.199 87.9359C202.013 87.1219 202.647 86.1518 203.11 85.02C203.572 83.8882 203.8 82.6728 203.8 81.3626C203.8 80.0525 203.566 78.8371 203.11 77.7109C202.647 76.5791 202.013 75.6034 201.199 74.7727C200.386 73.9476 199.417 73.3008 198.287 72.8381C197.156 72.3753 195.942 72.1468 194.639 72.1468C193.336 72.1468 192.128 72.3753 191.014 72.8381C189.9 73.3008 188.931 73.9476 188.102 74.7727C187.277 75.6034 186.631 76.5791 186.169 77.7109C185.707 78.8426 185.479 80.058 185.479 81.3626C185.479 82.6673 185.707 83.8882 186.169 85.02C186.631 86.1518 187.272 87.1219 188.102 87.9359C188.931 88.7499 189.9 89.3854 191.014 89.8482C192.128 90.3109 193.336 90.5395 194.639 90.5395Z" fill="white"/>
<path d="M225.964 65.8412V83.1356C225.964 84.2172 226.059 85.2151 226.248 86.1239C226.438 87.0327 226.766 87.8132 227.228 88.4655C227.691 89.1178 228.309 89.6252 229.088 89.9931C229.868 90.3611 230.848 90.5395 232.023 90.5395C233.198 90.5395 234.178 90.3555 234.958 89.9931C235.738 89.6252 236.367 89.1178 236.84 88.4655C237.319 87.8132 237.653 87.0327 237.843 86.1239C238.032 85.2151 238.127 84.2227 238.127 83.1356V65.8412H246.285V83.2805C246.285 84.7803 246.079 86.3469 245.661 87.986C245.249 89.6252 244.508 91.1249 243.445 92.4797C242.376 93.8345 240.922 94.9551 239.079 95.8471C237.236 96.7392 234.863 97.1852 231.967 97.1852C229.072 97.1852 226.744 96.7392 224.884 95.8471C223.024 94.9551 221.559 93.8345 220.496 92.4797C219.432 91.1249 218.691 89.6307 218.279 87.986C217.867 86.3469 217.655 84.7803 217.655 83.2805V65.8412H225.964Z" fill="white"/>
<path d="M260.151 65.8412H251.848V96.8451H260.151V65.8412Z" fill="white"/>
<path d="M265.704 96.8451V65.8412H274.007V90.2998L289.711 90.2496V96.8451H265.704Z" fill="white"/>
<path d="M295.263 65.8412H303.566V96.8451H295.263V65.8412ZM295.837 63.4494L301.896 57.9578H310.628L300.609 63.4494H295.837Z" fill="white"/>
<path d="M309.124 96.8451V65.8412H324.255C325.652 65.8412 327.084 65.9861 328.548 66.2704C330.013 66.5548 331.338 67.0343 332.53 67.7033C333.722 68.3723 334.707 69.2699 335.487 70.4017C336.267 71.5335 336.656 72.9384 336.656 74.6277C336.656 75.202 336.551 75.7986 336.345 76.4174C336.138 77.0363 335.827 77.6272 335.415 78.1848C335.002 78.7423 334.479 79.2329 333.839 79.6455C333.204 80.058 332.458 80.3479 331.594 80.5041C332.708 80.571 333.672 80.8441 334.485 81.3403C335.298 81.831 335.977 82.4331 336.534 83.13C337.091 83.8325 337.503 84.5851 337.776 85.3991C338.049 86.2131 338.182 86.9992 338.182 87.763C338.182 89.5471 337.77 91.0301 336.94 92.2065C336.111 93.3829 335.064 94.3195 333.788 94.9997C332.519 95.6855 331.11 96.1649 329.567 96.4325C328.025 96.7057 326.521 96.8395 325.056 96.8395H309.118L309.124 96.8451ZM317.427 78.0677L323.82 78.0175C324.36 78.0175 324.901 77.984 325.441 77.9227C325.981 77.8614 326.477 77.7332 326.922 77.538C327.368 77.3485 327.724 77.053 327.997 76.6571C328.27 76.2613 328.403 75.7261 328.403 75.057C328.403 74.388 328.259 73.9085 327.975 73.5294C327.685 73.1447 327.329 72.8548 326.9 72.643C326.471 72.4367 325.986 72.3029 325.446 72.236C324.906 72.1746 324.366 72.1412 323.826 72.1412L317.433 72.1858V78.0621L317.427 78.0677ZM317.427 90.5395H324.873C325.446 90.5395 326.025 90.5172 326.616 90.467C327.201 90.4168 327.741 90.2998 328.236 90.1102C328.726 89.9206 329.127 89.6196 329.428 89.2014C329.729 88.7889 329.879 88.2146 329.879 87.4787C329.879 86.7428 329.729 86.1629 329.428 85.7336C329.127 85.3044 328.737 84.9754 328.259 84.758C327.78 84.535 327.239 84.4012 326.638 84.351C326.031 84.3008 325.446 84.2785 324.873 84.2785H317.427V90.5395Z" fill="white"/>
<path d="M343.74 96.8451V65.8412H358.392C362.685 65.8412 365.91 66.7165 368.054 68.4671C370.198 70.2177 371.272 72.6262 371.272 75.6815C371.272 77.3708 370.81 78.9374 369.891 80.387C368.967 81.8365 367.508 83.0073 365.503 83.8994L372.804 96.8451H363.782L357.579 85.5218H352.043V96.8451H343.74ZM352.043 79.1214L357.434 79.0768C359.372 79.0768 360.792 78.8203 361.683 78.313C362.574 77.8056 363.019 76.9415 363.019 75.7317C363.019 75.0961 362.886 74.5608 362.613 74.1316C362.34 73.7023 361.984 73.3566 361.538 73.1057C361.093 72.8492 360.58 72.6708 360.012 72.5593C359.439 72.4478 358.848 72.3921 358.247 72.3921H352.043V79.127V79.1214Z" fill="white"/>
<path d="M385.078 65.8412H376.774V96.8451H385.078V65.8412Z" fill="white"/>
<path d="M390.63 81.3626C390.63 78.9095 391.109 76.7129 392.061 74.7671C393.013 72.8269 394.305 71.1599 395.926 69.7773C397.546 68.3946 399.412 67.3353 401.511 66.5994C403.611 65.869 405.805 65.5011 408.099 65.5011C410.394 65.5011 412.638 65.869 414.76 66.5994C416.87 67.3353 418.725 68.3835 420.317 69.7494C421.905 71.1209 423.18 72.7823 424.138 74.7393C425.09 76.6962 425.569 78.904 425.569 81.3571C425.569 83.8102 425.09 86.0124 424.138 87.9749C423.185 89.9374 421.905 91.5877 420.295 92.9424C418.686 94.2972 416.837 95.3398 414.737 96.0701C412.632 96.8061 410.422 97.1685 408.105 97.1685C405.788 97.1685 403.622 96.8005 401.517 96.0701C399.417 95.3398 397.557 94.2861 395.931 92.9146C394.311 91.5486 393.019 89.8816 392.067 87.9247C391.114 85.9622 390.635 83.7767 390.635 81.3571M408.099 90.5395C409.402 90.5395 410.616 90.3053 411.747 89.8482C412.877 89.3854 413.852 88.7499 414.659 87.9359C415.472 87.1219 416.113 86.1518 416.57 85.02C417.032 83.8882 417.266 82.6728 417.266 81.3626C417.266 80.0525 417.032 78.8371 416.57 77.7109C416.113 76.5791 415.472 75.6034 414.659 74.7727C413.852 73.9476 412.877 73.3008 411.747 72.8381C410.616 72.3753 409.402 72.1468 408.099 72.1468C406.796 72.1468 405.588 72.3753 404.474 72.8381C403.36 73.3008 402.391 73.9476 401.561 74.7727C400.737 75.6034 400.091 76.5791 399.629 77.7109C399.167 78.8426 398.939 80.058 398.939 81.3626C398.939 82.6673 399.167 83.8882 399.629 85.02C400.091 86.1518 400.732 87.1219 401.561 87.9359C402.391 88.7499 403.36 89.3854 404.474 89.8482C405.588 90.3109 406.796 90.5395 408.099 90.5395Z" fill="white"/>
<path d="M79.1579 120.345C5.01409 108.865 7.65373 11.0866 79.0688 0.833764C79.0688 0.833764 9.5917 -3.43688 11.8304 65.0885C13.7349 123.556 79.1579 120.35 79.1579 120.35V120.345Z" fill="white"/>
</svg>
