<svg width="178" height="50" viewBox="0 0 178 50" fill="none" xmlns="http://www.w3.org/2000/svg">
<path d="M28.1278 48.2653C24.7876 47.1081 21.8236 45.4513 19.2428 43.2881C16.662 41.1272 14.6098 38.5011 13.0909 35.4099C11.6897 32.5615 10.9441 29.3992 10.8356 25.9298C10.8217 25.6411 10.8125 25.3478 10.8125 25.0476C10.8125 24.7383 10.8194 24.4381 10.8356 24.1425C10.9464 20.6364 11.692 17.4673 13.0909 14.6441C14.6098 11.5803 16.6597 8.95195 19.2428 6.76584C21.8259 4.57973 24.7876 2.90921 28.1278 1.75199C29.8891 1.14244 31.6943 0.697888 33.5387 0.409157C31.8651 0.150215 30.1546 0.0173062 28.4095 0.0173062C24.7645 0.0173062 21.2719 0.59477 17.9293 1.75199C14.5891 2.90921 11.6251 4.57744 9.04427 6.76584C6.46347 8.95195 4.41361 11.578 2.89237 14.6441C1.37344 17.7102 0.616286 21.1772 0.616286 25.0476C0.616286 28.918 1.37575 32.3209 2.89468 35.4122C4.41361 38.5034 6.46578 41.1295 9.04657 43.2904C11.6297 45.4513 14.5914 47.1104 17.9316 48.2676C21.2719 49.4248 24.7645 50 28.4118 50C30.1592 50 31.8675 49.8648 33.5364 49.6082C31.692 49.3194 29.8891 48.8772 28.1278 48.2676" fill="#2D4D99"/>
<path d="M21.288 11.3122C23.5641 10.5239 25.8933 10.1413 28.4118 10.1413C30.9302 10.1413 33.361 10.5262 35.6694 11.3191C37.8324 12.0616 39.6421 13.0698 41.2049 14.4035C41.7982 14.9099 42.3268 15.4713 42.8231 16.0648H28.7049V23.691H56.1703C56.0133 20.3592 55.2654 17.3298 53.9265 14.6051C52.4076 11.5162 50.3808 8.89008 47.8531 6.72689C46.1957 5.31302 44.3559 4.11684 42.3407 3.13378C41.1172 2.98483 39.8707 2.90921 38.6103 2.90921C35.3093 2.90921 32.1075 3.43855 29.0904 4.48348C26.1057 5.51696 23.4279 7.02478 21.1357 8.9657C19.6468 10.226 18.3517 11.6743 17.2553 13.2806C18.4718 12.4786 19.8037 11.8255 21.288 11.3099" fill="#158240"/>
<path d="M28.7026 26.5784V34.2045H42.6408C42.2068 34.6903 41.752 35.1578 41.2465 35.5817C39.6329 36.9292 37.7885 37.9512 35.6094 38.7074C33.3379 39.4934 30.9833 39.8761 28.4118 39.8761C25.8402 39.8761 23.5618 39.4934 21.288 38.7074C19.7783 38.1849 18.4325 37.5181 17.1999 36.7092C18.3033 38.3499 19.6121 39.8165 21.1218 41.0791C23.4187 43.0017 26.0987 44.5004 29.0881 45.5361C32.1029 46.5788 35.3047 47.1081 38.608 47.1081C39.8522 47.1081 41.078 47.0348 42.283 46.8904C44.2936 45.9119 46.138 44.7272 47.8139 43.3294C50.3693 41.1937 52.4076 38.5813 53.9266 35.4901C55.2423 32.8136 55.9856 29.8438 56.1611 26.5806H28.7049L28.7026 26.5784Z" fill="#1E3F85"/>
<path d="M27.9432 48.1416C1.91822 39.0992 6.49579 4.01831 33.3564 0.285414C-10.434 -4.5772 -10.4687 54.3699 33.3518 49.4798C31.5073 49.1911 29.7045 48.7488 27.9432 48.1393" fill="#01A351"/>
<path d="M21.1034 11.1862C23.3795 10.3979 25.7086 10.0152 28.2271 10.0152C30.7456 10.0152 33.1763 10.4002 35.4847 11.1931C37.6477 11.9355 39.4575 12.9438 41.0203 14.2775C41.6135 14.7839 42.1422 15.3453 42.6385 15.9388H28.5203V23.565H55.9856C55.8287 20.2331 55.0807 17.2037 53.7419 14.4791C52.2229 11.3901 50.1962 8.76405 47.6685 6.60085C46.011 5.18698 44.1712 3.99081 42.156 3.00774C40.9325 2.85879 39.686 2.78317 38.4256 2.78317C35.1246 2.78317 31.9228 3.31252 28.9058 4.35745C25.921 5.39093 23.2433 6.89875 20.951 8.83967C19.4621 10.1 18.1671 11.5483 17.0706 13.1546C18.2871 12.3526 19.6191 11.6995 21.1034 11.1839" fill="#01A351"/>
<path d="M76.2303 15.7509C76.2696 17.0869 76.1519 18.212 75.8748 19.1286C75.5978 20.0452 75.1685 20.7877 74.5891 21.3583C74.0097 21.9266 73.2802 22.339 72.403 22.5957C71.5258 22.85 70.5124 22.9784 69.3675 22.9784C68.4441 22.9784 67.5646 22.8432 66.7266 22.5751C65.8887 22.3069 65.15 21.8968 64.5106 21.3468C63.8711 20.7968 63.3587 20.1094 62.9778 19.2844C62.5946 18.4595 62.4053 17.497 62.4053 16.3971C62.4053 15.2972 62.6362 14.3554 63.0978 13.5304C63.5595 12.7055 64.1666 12.0111 64.9169 11.4497C65.6694 10.886 66.5235 10.4621 67.4792 10.1733C68.4349 9.8846 69.4021 9.74024 70.3762 9.74024C71.2857 9.74024 72.1722 9.86398 73.0378 10.1138C73.9012 10.3635 74.6768 10.7554 75.3624 11.2916V14.14C75.0577 13.9039 74.7137 13.6908 74.3236 13.5029C73.9335 13.3127 73.5226 13.15 73.0863 13.0125C72.6523 12.875 72.2068 12.7719 71.752 12.6986C71.2973 12.6276 70.8379 12.5909 70.3762 12.5909C69.783 12.5909 69.2128 12.6665 68.6657 12.8155C68.1186 12.9667 67.6362 13.1959 67.2206 13.5029C66.8051 13.81 66.4727 14.2087 66.2211 14.6991C65.9718 15.1895 65.8448 15.783 65.8448 16.4773C65.8448 17.1189 65.9579 17.6758 66.1819 18.1455C66.4058 18.6176 66.6989 19.0094 67.0614 19.3234C67.4238 19.6373 67.8324 19.8734 68.2871 20.0315C68.7419 20.1873 69.2013 20.2812 69.6629 20.3064C70.0854 20.3202 70.494 20.2767 70.8887 20.1781C71.2834 20.0796 71.6343 19.9329 71.9367 19.7359C72.2414 19.5388 72.4838 19.2936 72.6685 19.0003C72.8531 18.7047 72.9455 18.3678 72.9455 17.9897H69.1089V15.7509H76.2303Z" fill="#1E3F85"/>
<path d="M78.541 22.8386V10.0954H84.6145C86.3942 10.0954 87.7308 10.4552 88.6195 11.1747C89.5106 11.8943 89.9538 12.8842 89.9538 14.14C89.9538 14.8343 89.7622 15.4782 89.3813 16.074C88.9981 16.6698 88.3933 17.151 87.5623 17.5177L90.5886 22.8386H86.849L84.2774 18.1845H81.9829V22.8386H78.541ZM81.9829 15.5538L84.2174 15.5332C85.0207 15.5332 85.6094 15.4278 85.9787 15.2193C86.3481 15.0107 86.5327 14.6556 86.5327 14.1583C86.5327 13.8971 86.4773 13.6771 86.3642 13.5006C86.2511 13.3242 86.1034 13.1844 85.9187 13.079C85.734 12.9736 85.524 12.898 85.2862 12.8521C85.0484 12.8063 84.8037 12.7834 84.5544 12.7834H81.9829V15.5538Z" fill="#1E3F85"/>
<path d="M95.6925 10.0954V17.2037C95.6925 17.6483 95.7317 18.0585 95.8102 18.432C95.8887 18.8055 96.0249 19.1263 96.2165 19.3944C96.4081 19.6625 96.6643 19.8734 96.9875 20.0223C97.3107 20.1735 97.717 20.2492 98.204 20.2492C98.6911 20.2492 99.0974 20.1735 99.4206 20.0223C99.7437 19.8711 100.005 19.6625 100.201 19.3944C100.399 19.1263 100.538 18.8055 100.616 18.432C100.695 18.0585 100.734 17.6506 100.734 17.2037V10.0954H104.116V17.2633C104.116 17.8797 104.03 18.5236 103.86 19.1974C103.689 19.8711 103.382 20.4875 102.941 21.042C102.5 21.5989 101.895 22.0595 101.131 22.4261C100.367 22.7928 99.3836 22.9761 98.1833 22.9761C96.9829 22.9761 96.018 22.7928 95.247 22.4261C94.476 22.0595 93.8689 21.5989 93.4279 21.042C92.9847 20.4852 92.68 19.8711 92.5092 19.1974C92.3384 18.5236 92.2507 17.8797 92.2507 17.2633V10.0954H95.6925Z" fill="#1E3F85"/>
<path d="M106.422 22.8386V10.0954H112.318C113.003 10.0954 113.675 10.1642 114.335 10.3017C114.993 10.4392 115.584 10.6683 116.106 10.9891C116.627 11.3099 117.045 11.7362 117.361 12.2655C117.678 12.7948 117.837 13.4525 117.837 14.2385C117.837 15.0245 117.668 15.6157 117.331 16.1336C116.994 16.6515 116.563 17.0754 116.036 17.41C115.51 17.7445 114.917 17.9874 114.257 18.1364C113.596 18.2876 112.95 18.3609 112.318 18.3609H109.864V22.8386H106.422ZM109.864 15.673H112.258C112.535 15.673 112.802 15.6547 113.059 15.6134C113.315 15.5745 113.543 15.4943 113.742 15.3774C113.94 15.2582 114.102 15.0955 114.227 14.887C114.351 14.6785 114.414 14.4081 114.414 14.0804C114.414 13.7527 114.349 13.5235 114.215 13.354C114.084 13.1844 113.915 13.0561 113.71 12.9713C113.504 12.8865 113.276 12.8338 113.017 12.8132C112.759 12.7948 112.505 12.7834 112.255 12.7834H109.861V15.6707L109.864 15.673Z" fill="#1E3F85"/>
<path d="M119.915 16.4773C119.915 15.469 120.113 14.5662 120.508 13.7664C120.903 12.969 121.438 12.2838 122.11 11.7155C122.782 11.1472 123.555 10.7118 124.425 10.4094C125.295 10.1092 126.205 9.95793 127.156 9.95793C128.107 9.95793 129.04 10.1092 129.915 10.4094C130.792 10.7118 131.558 11.1426 132.218 11.7041C132.879 12.2678 133.405 12.9507 133.802 13.755C134.197 14.5593 134.395 15.4668 134.395 16.475C134.395 17.4833 134.197 18.3884 133.802 19.1951C133.407 20.0017 132.876 20.68 132.209 21.2368C131.542 21.7936 130.776 22.2222 129.905 22.5224C129.035 22.8248 128.119 22.9738 127.156 22.9738C126.193 22.9738 125.298 22.8225 124.425 22.5224C123.555 22.2222 122.784 21.7891 122.11 21.2254C121.438 20.6616 120.903 19.9788 120.508 19.1744C120.113 18.3701 119.915 17.4695 119.915 16.475M127.154 20.2469C127.694 20.2469 128.199 20.1506 128.666 19.9627C129.134 19.7725 129.536 19.5113 129.873 19.1767C130.21 18.8422 130.473 18.4434 130.665 17.9783C130.856 17.5131 130.951 17.0135 130.951 16.475C130.951 15.9365 130.854 15.437 130.665 14.9741C130.473 14.5089 130.21 14.1079 129.873 13.7664C129.536 13.4273 129.134 13.1615 128.666 12.9713C128.197 12.7811 127.694 12.6871 127.154 12.6871C126.614 12.6871 126.113 12.7811 125.651 12.9713C125.189 13.1615 124.788 13.4273 124.444 13.7664C124.102 14.1079 123.834 14.5089 123.643 14.9741C123.451 15.4393 123.356 15.9388 123.356 16.475C123.356 17.0112 123.451 17.5131 123.643 17.9783C123.834 18.4434 124.1 18.8422 124.444 19.1767C124.788 19.5113 125.189 19.7725 125.651 19.9627C126.113 20.1529 126.614 20.2469 127.154 20.2469Z" fill="#1E3F85"/>
<path d="M62.4053 39.805V27.0619H72.5923V29.7498H65.8471V32.0276L71.168 32.0093V34.6605H65.8471V37.1148L72.8485 37.0941V39.805H62.4053Z" fill="#1E3F85"/>
<path d="M86.2465 43.0246L80.2931 39.9036C79.4229 39.8256 78.6011 39.6125 77.8301 39.2642C77.0591 38.9182 76.3873 38.4622 75.8125 37.8985C75.24 37.3348 74.783 36.6771 74.4483 35.9255C74.1112 35.1739 73.9427 34.3443 73.9427 33.4415C73.9427 32.4332 74.1412 31.5303 74.536 30.7306C74.9307 29.9331 75.4663 29.248 76.138 28.6797C76.8098 28.1114 77.5831 27.676 78.4533 27.3735C79.3236 27.0733 80.2331 26.9221 81.1842 26.9221C82.1352 26.9221 83.0632 27.0733 83.9335 27.3735C84.8037 27.676 85.5724 28.1068 86.2373 28.6682C86.9021 29.2319 87.433 29.9148 87.8301 30.7191C88.2248 31.5235 88.4233 32.4309 88.4233 33.4392C88.4233 34.106 88.3241 34.7476 88.1255 35.364C87.9293 35.9782 87.6523 36.5419 87.2945 37.0529C86.939 37.5639 86.5051 38.0153 85.9995 38.4072C85.4917 38.799 84.9215 39.1221 84.289 39.3696L88.0471 41.2945L86.2465 43.0223V43.0246ZM81.1819 37.2133C81.722 37.2133 82.2276 37.1171 82.6939 36.9292C83.1625 36.739 83.5641 36.4777 83.9012 36.1432C84.2382 35.8086 84.5014 35.4099 84.6929 34.9447C84.8845 34.4795 84.9792 33.98 84.9792 33.4415C84.9792 32.903 84.8822 32.4034 84.6929 31.9405C84.5014 31.4753 84.2382 31.0743 83.9012 30.7329C83.5641 30.3937 83.1625 30.1279 82.6939 29.9377C82.2253 29.7475 81.722 29.6536 81.1819 29.6536C80.6417 29.6536 80.1408 29.7475 79.6791 29.9377C79.2174 30.1279 78.8158 30.3937 78.4718 30.7329C78.1302 31.0743 77.8624 31.4753 77.6708 31.9405C77.4792 32.4057 77.3845 32.9052 77.3845 33.4415C77.3845 33.9777 77.4792 34.4795 77.6708 34.9447C77.8624 35.4099 78.1278 35.8086 78.4718 36.1432C78.8158 36.4777 79.2174 36.739 79.6791 36.9292C80.1408 37.1194 80.6417 37.2133 81.1819 37.2133Z" fill="#1E3F85"/>
<path d="M94.1666 27.0619V34.1702C94.1666 34.6147 94.2059 35.0249 94.2844 35.3984C94.3628 35.7719 94.499 36.0928 94.6906 36.3609C94.8822 36.629 95.1385 36.8375 95.4616 36.9887C95.7848 37.14 96.1911 37.2133 96.6782 37.2133C97.1653 37.2133 97.5715 37.1377 97.8947 36.9887C98.2179 36.8375 98.4787 36.629 98.6749 36.3609C98.8735 36.0928 99.012 35.7719 99.0905 35.3984C99.1689 35.0249 99.2082 34.617 99.2082 34.1702V27.0619H102.59V34.2297C102.59 34.8462 102.505 35.4901 102.331 36.1638C102.161 36.8375 101.854 37.4539 101.413 38.0108C100.969 38.5676 100.367 39.0282 99.6029 39.3948C98.8388 39.7615 97.8555 39.9448 96.6551 39.9448C95.4547 39.9448 94.4898 39.7615 93.7188 39.3948C92.9478 39.0282 92.3407 38.5676 91.8998 38.0108C91.4589 37.4539 91.1519 36.8398 90.981 36.1638C90.8102 35.4901 90.7225 34.8462 90.7225 34.2297V27.0619H94.1666Z" fill="#1E3F85"/>
<path d="M108.338 27.0619H104.896V39.805H108.338V27.0619Z" fill="#1E3F85"/>
<path d="M110.639 39.805V27.0619H114.081V37.1148L120.591 37.0941V39.805H110.639Z" fill="#1E3F85"/>
<path d="M122.892 27.0619H126.334V39.805H122.892V27.0619ZM123.13 26.0788L125.642 23.8216H129.261L125.108 26.0788H123.13Z" fill="#1E3F85"/>
<path d="M128.638 39.805V27.0619H134.91C135.489 27.0619 136.083 27.1214 136.69 27.2383C137.297 27.3552 137.846 27.5522 138.34 27.8272C138.834 28.1022 139.243 28.4711 139.566 28.9363C139.889 29.4015 140.051 29.979 140.051 30.6733C140.051 30.9093 140.007 31.1545 139.921 31.4089C139.836 31.6632 139.707 31.9061 139.536 32.1353C139.365 32.3644 139.148 32.5661 138.883 32.7357C138.62 32.9052 138.31 33.0244 137.952 33.0886C138.414 33.1161 138.813 33.2283 139.15 33.4323C139.488 33.6339 139.769 33.8814 140 34.1679C140.231 34.4566 140.402 34.766 140.515 35.1005C140.628 35.4351 140.683 35.7582 140.683 36.0721C140.683 36.8054 140.512 37.415 140.169 37.8985C139.825 38.382 139.391 38.767 138.862 39.0465C138.336 39.3284 137.752 39.5255 137.112 39.6354C136.473 39.7477 135.849 39.8027 135.242 39.8027H128.636L128.638 39.805ZM132.08 32.0872L134.73 32.0665C134.954 32.0665 135.178 32.0528 135.402 32.0276C135.626 32.0024 135.831 31.9497 136.016 31.8695C136.2 31.7916 136.348 31.6701 136.461 31.5074C136.574 31.3447 136.63 31.1247 136.63 30.8497C136.63 30.5748 136.57 30.3777 136.452 30.2219C136.332 30.0638 136.184 29.9446 136.006 29.8575C135.829 29.7727 135.628 29.7177 135.404 29.6902C135.18 29.665 134.956 29.6513 134.732 29.6513L132.082 29.6696V32.0849L132.08 32.0872ZM132.08 37.2133H135.166C135.404 37.2133 135.644 37.2041 135.889 37.1835C136.131 37.1629 136.355 37.1148 136.56 37.0369C136.764 36.9589 136.93 36.8352 137.054 36.6633C137.179 36.4938 137.241 36.2577 137.241 35.9553C137.241 35.6528 137.179 35.4145 137.054 35.238C136.93 35.0616 136.768 34.9264 136.57 34.837C136.371 34.7453 136.147 34.6903 135.898 34.6697C135.646 34.6491 135.404 34.6399 135.166 34.6399H132.08V37.2133Z" fill="#1E3F85"/>
<path d="M142.987 39.805V27.0619H149.06C150.84 27.0619 152.177 27.4216 153.066 28.1412C153.954 28.8607 154.4 29.8506 154.4 31.1064C154.4 31.8007 154.208 32.4446 153.827 33.0404C153.444 33.6362 152.839 34.1175 152.008 34.4841L155.035 39.805H151.295L148.723 35.1509H146.429V39.805H142.987ZM146.429 32.5203L148.663 32.5019C149.467 32.5019 150.055 32.3965 150.425 32.188C150.794 31.9795 150.979 31.6243 150.979 31.127C150.979 30.8658 150.923 30.6458 150.81 30.4694C150.697 30.2929 150.549 30.1508 150.365 30.0477C150.18 29.9423 149.968 29.869 149.732 29.8231C149.494 29.7773 149.25 29.7544 149 29.7544H146.429V32.5226V32.5203Z" fill="#1E3F85"/>
<path d="M160.122 27.0619H156.681V39.805H160.122V27.0619Z" fill="#1E3F85"/>
<path d="M162.424 33.4415C162.424 32.4332 162.622 31.5303 163.017 30.7306C163.412 29.9331 163.947 29.248 164.619 28.6797C165.291 28.1114 166.064 27.676 166.934 27.3735C167.805 27.0733 168.714 26.9221 169.665 26.9221C170.616 26.9221 171.547 27.0733 172.426 27.3735C173.301 27.676 174.07 28.1068 174.73 28.6682C175.388 29.2319 175.916 29.9148 176.313 30.7191C176.708 31.5235 176.907 32.4309 176.907 33.4392C176.907 34.4474 176.708 35.3526 176.313 36.1592C175.919 36.9658 175.388 37.6441 174.721 38.201C174.054 38.7578 173.287 39.1863 172.417 39.4865C171.544 39.789 170.628 39.9379 169.668 39.9379C168.707 39.9379 167.809 39.7867 166.937 39.4865C166.066 39.1863 165.295 38.7532 164.621 38.1895C163.95 37.6281 163.414 36.9429 163.019 36.1386C162.625 35.332 162.426 34.4337 162.426 33.4392M169.665 37.2133C170.205 37.2133 170.709 37.1171 171.177 36.9292C171.646 36.739 172.05 36.4777 172.385 36.1432C172.722 35.8086 172.987 35.4099 173.176 34.9447C173.368 34.4795 173.465 33.98 173.465 33.4415C173.465 32.903 173.368 32.4034 173.176 31.9405C172.987 31.4753 172.722 31.0743 172.385 30.7329C172.05 30.3937 171.646 30.1279 171.177 29.9377C170.709 29.7475 170.205 29.6536 169.665 29.6536C169.125 29.6536 168.624 29.7475 168.163 29.9377C167.701 30.1279 167.299 30.3937 166.955 30.7329C166.614 31.0743 166.346 31.4753 166.154 31.9405C165.963 32.4057 165.868 32.9052 165.868 33.4415C165.868 33.9777 165.963 34.4795 166.154 34.9447C166.346 35.4099 166.611 35.8086 166.955 36.1432C167.299 36.4777 167.701 36.739 168.163 36.9292C168.624 37.1194 169.125 37.2133 169.665 37.2133Z" fill="#1E3F85"/>
<path d="M33.3125 49.4638C2.57843 44.7455 3.67261 4.55681 33.2756 0.342702C33.2756 0.342702 4.47594 -1.41261 5.40391 26.7525C6.19339 50.7837 33.3125 49.4661 33.3125 49.4661V49.4638Z" fill="#1E3F85"/>
<path d="M91.018 46.9294V42.7932H91.475L93.9081 45.3895V42.7932H94.7691V46.9294H94.3121L91.879 44.3331V46.9294H91.018Z" fill="#01A351"/>
<path d="M97.4884 42.7863V45.103C97.4884 45.2749 97.5046 45.433 97.5369 45.5751C97.5692 45.7171 97.6246 45.8386 97.7031 45.9417C97.7816 46.0425 97.8832 46.1227 98.0101 46.1777C98.1371 46.235 98.2941 46.2625 98.481 46.2625C98.668 46.2625 98.825 46.235 98.9496 46.1777C99.0743 46.1205 99.1782 46.0425 99.2567 45.9371C99.3352 45.834 99.3905 45.7103 99.4275 45.5682C99.4644 45.4261 99.4806 45.2703 99.4806 45.103V42.7863H100.323V45.1236C100.323 45.3643 100.291 45.598 100.226 45.8203C100.162 46.0425 100.055 46.2396 99.9099 46.4115C99.7645 46.5833 99.5752 46.7208 99.3398 46.824C99.1043 46.9248 98.8181 46.9752 98.4787 46.9752C98.1394 46.9752 97.8532 46.9248 97.6177 46.824C97.3822 46.7231 97.193 46.5856 97.0475 46.4115C96.9021 46.2396 96.7959 46.0425 96.7313 45.8203C96.6666 45.598 96.6343 45.3665 96.6343 45.1236V42.7863H97.4954H97.4884Z" fill="#01A351"/>
<path d="M102.978 46.9294V43.4852H101.595V42.7863H105.215V43.4852H103.832V46.9294H102.978Z" fill="#01A351"/>
<path d="M106.618 46.9294V42.7863H108.509C108.756 42.7863 108.982 42.8115 109.183 42.8596C109.384 42.91 109.557 42.9879 109.7 43.0934C109.843 43.1988 109.954 43.3317 110.032 43.4921C110.111 43.6525 110.15 43.8427 110.15 44.0627C110.15 44.3216 110.076 44.5462 109.931 44.7318C109.785 44.9197 109.578 45.0641 109.307 45.1626L110.293 46.9294H109.354L108.493 45.3368H107.475V46.9294H106.614H106.618ZM107.479 44.6562L108.373 44.6493C108.502 44.6493 108.624 44.6401 108.735 44.6241C108.846 44.6081 108.943 44.576 109.028 44.5324C109.114 44.4889 109.178 44.4293 109.227 44.3537C109.275 44.2781 109.298 44.1818 109.298 44.065C109.298 43.9481 109.277 43.845 109.234 43.7694C109.19 43.6937 109.13 43.6342 109.054 43.5906C108.977 43.5471 108.89 43.5196 108.793 43.5035C108.696 43.4875 108.594 43.4806 108.49 43.4806H107.479V44.6562Z" fill="#01A351"/>
<path d="M111.828 46.9294V42.7932H112.689V46.9294H111.828Z" fill="#01A351"/>
<path d="M114.582 46.9294V42.7932H115.039L117.472 45.3895V42.7932H118.333V46.9294H117.876L115.443 44.3331V46.9294H114.582Z" fill="#01A351"/>
<path d="M120.222 42.7863H122.061C122.426 42.7863 122.752 42.8413 123.036 42.949C123.319 43.0567 123.562 43.2056 123.763 43.3935C123.964 43.5814 124.116 43.8014 124.22 44.0535C124.324 44.3056 124.377 44.5737 124.377 44.8601C124.377 45.1466 124.324 45.4192 124.22 45.669C124.116 45.9188 123.964 46.1388 123.763 46.3267C123.562 46.5146 123.319 46.6635 123.036 46.7713C122.749 46.879 122.426 46.9339 122.061 46.9339H120.222V42.7863ZM121.083 46.2304H122.029C122.255 46.2304 122.461 46.1984 122.645 46.1342C122.83 46.07 122.987 45.9761 123.119 45.8546C123.248 45.7332 123.349 45.5888 123.419 45.4215C123.488 45.252 123.523 45.0664 123.523 44.8578C123.523 44.6493 123.488 44.4637 123.419 44.2941C123.349 44.1245 123.248 43.9825 123.119 43.8633C122.989 43.7441 122.83 43.6525 122.645 43.586C122.461 43.5196 122.255 43.4852 122.029 43.4852H121.083V46.2304Z" fill="#01A351"/>
<path d="M125.602 44.8578C125.602 44.5393 125.665 44.2483 125.789 43.9916C125.914 43.7327 126.08 43.5104 126.288 43.3248C126.496 43.1392 126.738 42.9971 127.015 42.8986C127.292 42.8 127.583 42.7496 127.892 42.7496C128.202 42.7496 128.493 42.8 128.77 42.8986C129.047 42.9971 129.287 43.1392 129.494 43.3248C129.702 43.5104 129.866 43.7327 129.986 43.9916C130.108 44.2506 130.168 44.5393 130.168 44.8578C130.168 45.1763 130.108 45.4674 129.986 45.7286C129.864 45.9898 129.7 46.2121 129.494 46.3954C129.289 46.5788 129.047 46.7208 128.77 46.8217C128.493 46.9225 128.202 46.9729 127.892 46.9729C127.583 46.9729 127.292 46.9225 127.015 46.8217C126.738 46.7208 126.496 46.5788 126.288 46.3954C126.08 46.2121 125.914 45.9898 125.789 45.7286C125.665 45.4674 125.602 45.1763 125.602 44.8578ZM127.892 46.2625C128.098 46.2625 128.285 46.2259 128.456 46.1548C128.626 46.0838 128.777 45.9853 128.903 45.8592C129.03 45.7332 129.127 45.5865 129.201 45.4147C129.273 45.2451 129.31 45.0572 129.31 44.8555C129.31 44.6539 129.273 44.466 129.201 44.2964C129.13 44.1268 129.03 43.9779 128.903 43.8518C128.777 43.7258 128.629 43.6296 128.456 43.5562C128.285 43.4852 128.096 43.4485 127.892 43.4485C127.689 43.4485 127.5 43.4852 127.325 43.5562C127.151 43.6273 126.999 43.7258 126.872 43.8518C126.743 43.9779 126.644 44.1245 126.572 44.2964C126.5 44.466 126.464 44.6539 126.464 44.8555C126.464 45.0572 126.5 45.2451 126.572 45.4147C126.644 45.5842 126.743 45.7332 126.872 45.8592C127.001 45.9853 127.151 46.0815 127.325 46.1548C127.498 46.2259 127.687 46.2625 127.892 46.2625Z" fill="#01A351"/>
<path d="M137.382 46.6063C137.156 46.7438 136.934 46.84 136.72 46.895C136.505 46.95 136.267 46.9752 136.006 46.9752C135.697 46.9752 135.399 46.9271 135.113 46.8285C134.827 46.73 134.573 46.5902 134.354 46.4069C134.134 46.2236 133.959 46.0013 133.825 45.7401C133.691 45.4788 133.626 45.1855 133.626 44.8624C133.626 44.5393 133.693 44.2391 133.825 43.9779C133.957 43.7166 134.134 43.4944 134.356 43.3111C134.578 43.1277 134.831 42.9879 135.12 42.8894C135.409 42.7909 135.704 42.7428 136.013 42.7428C136.249 42.7428 136.487 42.768 136.727 42.8207C136.969 42.8734 137.186 42.9696 137.382 43.1117V43.8564C137.181 43.7304 136.978 43.6364 136.768 43.5746C136.56 43.5127 136.313 43.4806 136.032 43.4806C135.829 43.4806 135.632 43.5127 135.446 43.5769C135.259 43.641 135.095 43.7327 134.954 43.8518C134.813 43.971 134.7 44.1154 134.614 44.2849C134.529 44.4545 134.488 44.647 134.488 44.8578C134.488 45.0686 134.529 45.2588 134.614 45.4284C134.7 45.5957 134.813 45.7401 134.954 45.8615C135.095 45.983 135.259 46.0746 135.446 46.1411C135.632 46.2052 135.829 46.2373 136.032 46.2373C136.17 46.2373 136.297 46.2304 136.413 46.219C136.528 46.2052 136.639 46.1846 136.745 46.1548C136.851 46.125 136.955 46.0884 137.059 46.0448C137.163 46.0013 137.269 45.9486 137.382 45.889V46.6063Z" fill="#01A351"/>
<path d="M138.647 44.8578C138.647 44.5393 138.71 44.2483 138.834 43.9916C138.959 43.7327 139.125 43.5104 139.333 43.3248C139.541 43.1392 139.783 42.9971 140.06 42.8986C140.337 42.8 140.628 42.7496 140.937 42.7496C141.247 42.7496 141.537 42.8 141.814 42.8986C142.091 42.9971 142.331 43.1392 142.539 43.3248C142.747 43.5104 142.911 43.7327 143.031 43.9916C143.153 44.2506 143.213 44.5393 143.213 44.8578C143.213 45.1763 143.153 45.4674 143.031 45.7286C142.909 45.9898 142.745 46.2121 142.539 46.3954C142.334 46.5788 142.091 46.7208 141.814 46.8217C141.537 46.9225 141.247 46.9729 140.937 46.9729C140.628 46.9729 140.337 46.9225 140.06 46.8217C139.783 46.7208 139.541 46.5788 139.333 46.3954C139.125 46.2121 138.959 45.9898 138.834 45.7286C138.71 45.4674 138.647 45.1763 138.647 44.8578ZM140.937 46.2625C141.143 46.2625 141.33 46.2259 141.5 46.1548C141.671 46.0838 141.821 45.9853 141.948 45.8592C142.075 45.7332 142.172 45.5865 142.246 45.4147C142.318 45.2451 142.355 45.0572 142.355 44.8555C142.355 44.6539 142.318 44.466 142.246 44.2964C142.174 44.1268 142.075 43.9779 141.948 43.8518C141.821 43.7258 141.674 43.6296 141.5 43.5562C141.33 43.4852 141.14 43.4485 140.937 43.4485C140.734 43.4485 140.545 43.4852 140.369 43.5562C140.196 43.6273 140.044 43.7258 139.917 43.8518C139.788 43.9779 139.688 44.1245 139.617 44.2964C139.545 44.466 139.508 44.6539 139.508 44.8555C139.508 45.0572 139.545 45.2451 139.617 45.4147C139.688 45.5842 139.788 45.7332 139.917 45.8592C140.046 45.9853 140.196 46.0815 140.369 46.1548C140.542 46.2259 140.732 46.2625 140.937 46.2625Z" fill="#01A351"/>
<path d="M144.771 46.9294V42.7932H145.229L147.662 45.3895V42.7932H148.523V46.9294H148.066L145.632 44.3331V46.9294H144.771Z" fill="#01A351"/>
<path d="M150.413 46.9294V42.7932H153.543V43.4921L151.274 43.4852V44.4041H152.989V45.0893H151.274V46.9271H150.413V46.9294Z" fill="#01A351"/>
<path d="M155.03 46.9294V42.7932H155.891V46.9294H155.03Z" fill="#01A351"/>
<path d="M160.346 46.2625H158.599L158.28 46.9294H157.394L159.317 42.7932H159.631L161.567 46.9294H160.66L160.346 46.2625ZM160.032 45.6026L159.478 44.411L158.917 45.6026H160.032Z" fill="#01A351"/>
<path d="M163.066 46.9294V42.7932H163.523L165.956 45.3895V42.7932H166.817V46.9294H166.36L163.927 44.3331V46.9294H163.066Z" fill="#01A351"/>
<path d="M172.124 46.6063C171.898 46.7438 171.676 46.84 171.461 46.895C171.247 46.95 171.009 46.9752 170.748 46.9752H170.633C170.596 46.9752 170.561 46.9752 170.524 46.9683L170.466 47.1883C170.619 47.2089 170.748 47.2616 170.854 47.3395C170.96 47.4198 171.013 47.5435 171.013 47.7108C171.013 47.8185 170.99 47.9101 170.942 47.9835C170.893 48.0568 170.831 48.1164 170.755 48.1622C170.679 48.208 170.593 48.2401 170.501 48.263C170.406 48.2837 170.314 48.2951 170.224 48.2951C170.111 48.2951 170.007 48.2837 169.91 48.263C169.815 48.2424 169.716 48.2012 169.617 48.1393L169.781 47.8024C169.841 47.8322 169.91 47.8574 169.984 47.8735C170.058 47.8895 170.129 47.8987 170.199 47.8987C170.268 47.8987 170.332 47.8849 170.395 47.8597C170.455 47.8345 170.485 47.7772 170.485 47.6902C170.485 47.6329 170.464 47.5916 170.422 47.5618C170.381 47.532 170.33 47.5114 170.272 47.5C170.215 47.4885 170.155 47.4839 170.092 47.4839H169.942L170.106 46.9019C169.866 46.8469 169.642 46.7598 169.432 46.6406C169.222 46.5215 169.037 46.3748 168.88 46.2007C168.723 46.0265 168.599 45.8271 168.509 45.6026C168.416 45.378 168.373 45.1328 168.373 44.8647C168.373 44.537 168.44 44.2414 168.571 43.9802C168.703 43.7189 168.88 43.4967 169.1 43.3133C169.319 43.13 169.573 42.9902 169.859 42.8917C170.145 42.7932 170.443 42.745 170.753 42.745C170.988 42.745 171.226 42.7702 171.466 42.823C171.708 42.8757 171.925 42.9719 172.121 43.114V43.8587C171.921 43.7327 171.717 43.6387 171.507 43.5769C171.3 43.515 171.053 43.4829 170.771 43.4829C170.568 43.4829 170.372 43.515 170.185 43.5792C169.998 43.6433 169.834 43.735 169.693 43.8541C169.552 43.9733 169.439 44.1177 169.358 44.2872C169.275 44.4568 169.234 44.6493 169.234 44.8601C169.234 45.0709 169.275 45.2611 169.358 45.4307C169.441 45.598 169.552 45.7424 169.693 45.8638C169.834 45.9853 169.998 46.0769 170.185 46.1434C170.372 46.2075 170.568 46.2396 170.771 46.2396C170.91 46.2396 171.036 46.2327 171.152 46.2213C171.267 46.2075 171.378 46.1869 171.484 46.1571C171.59 46.1273 171.694 46.0907 171.798 46.0471C171.902 46.0036 172.008 45.9509 172.121 45.8913V46.604L172.124 46.6063Z" fill="#01A351"/>
<path d="M176.279 46.2625H174.531L174.213 46.9294H173.326L175.249 42.7932H175.563L177.5 46.9294H176.593L176.279 46.2625ZM175.965 45.6026L175.411 44.411L174.85 45.6026H175.965Z" fill="#01A351"/>
</svg>
